<svg width="1000" height="394" viewBox="0 0 1000 394" fill="none" xmlns="http://www.w3.org/2000/svg">
<g clip-path="url(#clip0_0_1)">
<path d="M358.27 275.98V19.07H428.02V122.94H431.54L508.81 19.07H590.1L503.29 133.48L592.11 275.98H508.81L451.11 179.64L428.02 209.75V275.98H358.27Z" fill="#1E2B3C"/>
<path d="M685.22 83.3H615.97V275.99H685.22V83.3Z" fill="#1E2B3C"/>
<path d="M650.6 63.23C631.78 63.23 616.48 49.05 616.48 31.62C616.48 14.19 631.78 0.00999451 650.6 0.00999451C669.42 0.00999451 684.72 14.19 684.72 31.62C684.72 49.05 669.42 63.23 650.6 63.23Z" fill="#1E2B3C"/>
<path d="M839.1 83.3V133.48H805.98V214.02C805.98 222.05 809.99 226.06 819.03 226.06C823.17 226.06 829.94 224.68 832.58 224.05L842.62 272.72C836.35 274.6 824.68 277.86 809 278.74C761.2 281.38 736.24 260.93 736.74 220.53V133.47H712.15V83.29H736.74V37.13H805.99V83.29H839.11L839.1 83.3Z" fill="#1E2B3C"/>
<path d="M996.49 83.3V133.48H963.37V214.02C963.37 222.05 967.38 226.06 976.42 226.06C980.56 226.06 987.33 224.68 989.97 224.05L1000.01 272.72C993.74 274.6 982.07 277.86 966.39 278.74C918.59 281.38 893.63 260.93 894.13 220.53V133.47H869.54V83.29H894.13V37.13H963.38V83.29H996.5L996.49 83.3Z" fill="#1E2B3C"/>
<path d="M244.87 275.98C224.7 275.98 207.64 262.38 202.38 243.87H128.45C125.26 243.87 122.19 242.6 119.93 240.34L65.66 186.07C59.29 189.64 51.95 191.68 44.14 191.68C19.79 191.68 -0.0200195 171.87 -0.0200195 147.52C-0.0200195 123.17 19.79 103.36 44.14 103.36C51.95 103.36 59.29 105.4 65.66 108.97L119.93 54.7C122.19 52.44 125.25 51.17 128.45 51.17H202.38C207.63 32.65 224.69 19.06 244.87 19.06C269.22 19.06 289.03 38.87 289.03 63.22C289.03 87.57 269.22 107.38 244.87 107.38C237.06 107.38 229.72 105.34 223.35 101.77L199.12 126C202.69 132.37 204.73 139.71 204.73 147.52C204.73 155.33 202.69 162.67 199.12 169.04L223.35 193.27C229.72 189.7 237.06 187.66 244.87 187.66C269.22 187.66 289.03 207.47 289.03 231.82C289.03 256.17 269.22 275.98 244.87 275.98ZM244.87 211.75C233.8 211.75 224.8 220.75 224.8 231.82C224.8 242.89 233.8 251.89 244.87 251.89C255.94 251.89 264.94 242.89 264.94 231.82C264.94 220.75 255.94 211.75 244.87 211.75ZM133.45 219.78H202.39C203.34 216.44 204.67 213.27 206.33 210.3L182.1 186.07C175.73 189.64 168.39 191.68 160.58 191.68C140.4 191.68 123.35 178.08 118.09 159.57H86.65C85.7 162.91 84.37 166.08 82.71 169.05L133.45 219.79V219.78ZM160.57 127.45C149.5 127.45 140.5 136.45 140.5 147.52C140.5 158.59 149.5 167.59 160.57 167.59C171.64 167.59 180.64 158.59 180.64 147.52C180.64 136.45 171.64 127.45 160.57 127.45ZM44.16 127.45C33.09 127.45 24.09 136.45 24.09 147.52C24.09 158.59 33.09 167.59 44.16 167.59C55.23 167.59 64.23 158.59 64.23 147.52C64.23 136.45 55.23 127.45 44.16 127.45ZM86.64 135.48H118.08C123.33 116.96 140.39 103.37 160.57 103.37C168.38 103.37 175.72 105.41 182.09 108.98L206.32 84.75C204.66 81.78 203.33 78.61 202.38 75.27H133.44L82.7 126.01C84.36 128.98 85.69 132.15 86.64 135.49V135.48ZM244.87 43.15C233.8 43.15 224.8 52.15 224.8 63.22C224.8 74.29 233.8 83.29 244.87 83.29C255.94 83.29 264.94 74.29 264.94 63.22C264.94 52.15 255.94 43.15 244.87 43.15Z" fill="url(#paint0_linear_0_1)"/>
</g>
<defs>
<linearGradient id="paint0_linear_0_1" x1="289.13" y1="45.06" x2="84.2" y2="249.99" gradientUnits="userSpaceOnUse">
<stop offset="0.5" stop-color="#1282CC"/>
<stop offset="0.52" stop-color="#157AC6"/>
<stop offset="0.6" stop-color="#225DAF"/>
<stop offset="0.68" stop-color="#2C469C"/>
<stop offset="0.77" stop-color="#333690"/>
<stop offset="0.87" stop-color="#372D88"/>
<stop offset="1" stop-color="#392A86"/>
</linearGradient>
<clipPath id="clip0_0_1">
<rect width="1000" height="393.47" fill="white"/>
</clipPath>
</defs>
</svg>
